<svg height="20" viewBox="0 0 20 20" width="20" xmlns="http://www.w3.org/2000/svg"><path d="m10 0c-3.29 0-6.18 1.6-8 4.05v-2.05c0-.55-.45-1-1-1s-1 .45-1 1v4c0 .55.45 1 1 1h4c.55 0 1-.45 1-1s-.45-1-1-1h-1.24c1.46-1.83 3.71-3 6.24-3 4.42 0 8 3.58 8 8s-3.58 8-8 8-8-3.58-8-8c0-.55-.45-1-1-1s-1 .45-1 1c0 5.52 4.48 10 10 10s10-4.48 10-10-4.48-10-10-10zm4 7c-.28 0-.53.11-.71.29l-4.29 4.29-2.29-2.29c-.18-.18-.43-.29-.71-.29-.55 0-1 .45-1 1 0 .28.11.53.29.71l3 3c.18.18.43.29.71.29s.53-.11.71-.29l5-5c.18-.18.29-.43.29-.71 0-.55-.45-1-1-1z" fill-rule="evenodd"/></svg>